<svg width="187" height="59" viewBox="0 0 187 59" fill="none" xmlns="http://www.w3.org/2000/svg">
<path fill-rule="evenodd" clip-rule="evenodd" d="M148.134 17.1089V14.6084L152.306 17.1089V38.7797H148.134V17.1089ZM84.6252 36.0995L82.6066 32.9335C81.2607 34.1396 80.0318 34.8633 78.2472 34.8633C75.2921 34.8633 73.2441 32.3907 73.2441 28.1995V27.898C73.2441 23.7972 75.3215 21.2945 78.2179 21.2945C79.8565 21.2945 81.173 22.0182 82.4895 23.164L84.4788 19.6361C82.9283 18.1887 81.1437 17.2238 78.1302 17.2238C72.7467 17.2238 68.8555 21.5357 68.8555 27.9583V28.2297C68.8555 34.6824 72.7467 38.9338 77.9252 38.9338C80.9973 38.9338 82.8989 37.8786 84.6252 36.0995ZM121.706 17.2238V21.4578H117.018V17.2238H121.706ZM121.706 23.0688V38.9338H117.018V23.0688H121.706ZM98.6901 38.9338V28.6124C98.6901 24.3478 96.5785 21.9064 92.1138 21.9064C89.7611 21.9064 88.2527 22.3391 86.6841 23.0498L87.4987 26.6037C88.7956 26.0783 89.912 25.7384 91.42 25.7384C93.4714 25.7384 94.5271 26.7582 94.5271 28.6433V29.1068C93.5316 28.7051 92.5059 28.4578 91.1183 28.4578C87.8 28.4578 85.4774 30.0957 85.4774 33.7422V33.9586C85.4774 37.1416 87.6191 38.9338 90.304 38.9338C92.2045 38.9338 93.5959 38.1615 94.561 36.8944V38.9338H98.6901ZM94.5572 33.2478C94.5572 34.762 93.3807 35.7818 91.6917 35.7818C90.485 35.7818 89.6102 35.102 89.6102 33.7422V33.5259C89.6102 32.0426 90.6058 31.3009 92.1744 31.3009C93.0793 31.3009 93.9541 31.5172 94.5572 31.8263V33.2478ZM146.853 38.9338V28.6124C146.853 24.3478 144.673 21.9064 140.064 21.9064C137.635 21.9064 136.078 22.3391 134.459 23.0498L135.3 26.6037C136.639 26.0783 137.791 25.7384 139.348 25.7384C141.465 25.7384 142.555 26.7582 142.555 28.6433V29.1068C141.528 28.7051 140.469 28.4578 139.037 28.4578C135.611 28.4578 133.214 30.0957 133.214 33.7422V33.9586C133.214 37.1416 135.424 38.9338 138.196 38.9338C140.158 38.9338 141.594 38.1615 142.59 36.8944V38.9338H146.853ZM142.587 33.2478C142.587 34.762 141.372 35.7818 139.628 35.7818C138.383 35.7818 137.48 35.102 137.48 33.7422V33.5259C137.48 32.0426 138.507 31.3009 140.127 31.3009C141.061 31.3009 141.964 31.5172 142.587 31.8263V33.2478ZM159.266 21.4578V17.2238H154.578V21.4578H159.266ZM159.266 38.9338V23.0688H154.578V38.9338H159.266ZM168.541 28.7605C170.821 29.9284 172.883 31.0656 172.883 33.8318C172.883 37.2128 170.322 38.9338 167.01 38.9338C165.042 38.9338 162.824 38.3194 160.949 36.9669L162.386 33.7397C164.011 34.8461 165.635 35.4301 167.01 35.4301C168.197 35.4301 168.822 34.9383 168.822 34.1392C168.822 33.3649 167.963 32.9807 166.633 32.3861C166.379 32.2726 166.108 32.1515 165.823 32.0184C163.667 31.0349 161.48 29.8055 161.48 26.8856C161.48 23.7198 163.98 21.9064 167.198 21.9064C168.978 21.9064 170.852 22.4289 172.415 23.3817L171.134 26.7012C169.728 25.9021 168.322 25.4103 167.198 25.4103C166.135 25.4103 165.573 25.8713 165.573 26.5783C165.573 27.2718 166.402 27.6863 167.714 28.3421C167.972 28.4709 168.248 28.6091 168.541 28.7605ZM177.44 18.3593L175.353 17.109V19.6093V22.9608H173.728V26.3048H175.353V34.5643C175.353 37.8594 177.058 38.7797 179.526 38.7797C180.82 38.7797 181.873 38.4828 182.686 38.0078V34.6236C182.144 34.9205 181.512 35.0689 180.85 35.0689C179.947 35.0689 179.526 34.6236 179.526 33.7034V26.3048H182.029V22.9608H179.526V19.6095L177.44 18.3593ZM132.361 34.6887V38.1454C131.51 38.6305 130.407 38.9338 129.053 38.9338C126.469 38.9338 124.685 37.9939 124.685 34.628V26.1914H122.984V22.7757H124.685V19.3523H124.689V17.2238L126.82 18.288L128.951 19.3523H129.053V22.7757H131.719V26.1914H129.053V33.7487C129.053 34.6887 129.494 35.1436 130.439 35.1436C131.132 35.1436 131.794 34.9919 132.361 34.6887ZM115.589 30.66V30.1817C115.589 24.7107 112.597 22.1098 109.331 22.1098C107.163 22.1098 105.687 23.2758 104.741 24.6211V22.1098H100.568V42.1138H100.568L104.74 44.6143V42.6046L104.741 36.4C105.687 37.5659 107.133 38.732 109.331 38.732C112.628 38.732 115.589 36.1309 115.589 30.66ZM111.417 30.6002C111.417 33.3506 109.849 35.0248 108.048 35.0248C106.277 35.0248 104.71 33.3207 104.71 30.6002V30.2414C104.71 27.5209 106.277 25.8169 108.048 25.8169C109.849 25.8169 111.417 27.5209 111.417 30.2414V30.6002Z" fill="white"/>
<path opacity="0.3" d="M29.5362 59C45.8486 59 59.0724 45.7924 59.0724 29.5C59.0724 13.2076 45.8486 0 29.5362 0C13.2238 0 0 13.2076 0 29.5C0 45.7924 13.2238 59 29.5362 59Z" fill="#EBEDF1"/>
<path d="M37.851 10.0283H21.2227L22.4624 20.1485H36.5961L37.851 10.0283Z" fill="white"/>
<path d="M36.3276 22.3125H22.7383L23.3067 26.851C23.5703 27.0061 23.7445 27.1518 24.02 27.2876C25.7289 28.1297 27.6104 28.5694 29.5183 28.5723C31.4263 28.5753 33.3092 28.1415 35.0206 27.3047C35.3048 27.1658 35.4823 27.0164 35.7539 26.857L36.3276 22.3125Z" fill="white"/>
<path d="M39.3982 26.021C38.2382 27.524 36.7442 28.7413 35.0328 29.5781C33.3213 30.4149 31.4384 30.8486 29.5304 30.8457C27.6225 30.8427 25.741 30.4031 24.0321 29.5609C22.3233 28.7188 20.8333 27.4969 19.6779 25.9902L17.6836 27.4963C19.0724 29.3073 20.8635 30.776 22.9175 31.7883C24.9715 32.8005 27.2331 33.329 29.5265 33.3325C31.8199 33.3361 34.0832 32.8147 36.1403 31.8089C38.1975 30.8031 39.9934 29.3399 41.3878 27.5332L39.3982 26.021Z" fill="white"/>
<path fill-rule="evenodd" clip-rule="evenodd" d="M28.4376 38.778C28.1199 40.5146 26.5884 41.8314 24.7471 41.8314C22.6755 41.8314 20.9961 40.1647 20.9961 38.1091C20.9961 36.0532 22.6755 34.3867 24.7471 34.3867C26.4371 34.3867 27.866 35.4958 28.3351 37.0205C28.4848 36.9394 28.6416 36.8732 28.8034 36.8225C29.0545 36.7437 29.3174 36.7025 29.5835 36.7014C29.8495 36.7002 30.1128 36.7391 30.3647 36.8156C30.5331 36.8668 30.6965 36.9348 30.8521 37.0189C31.3217 35.495 32.7503 34.3867 34.4396 34.3867C36.5112 34.3867 38.1908 36.0532 38.1908 38.1091C38.1908 40.1647 36.5112 41.8314 34.4396 41.8314C32.5939 41.8314 31.0595 40.5082 30.7469 38.7656C30.6434 38.5499 30.4805 38.3677 30.277 38.2399C30.0714 38.111 29.8328 38.043 29.5895 38.0441C29.3462 38.0452 29.1082 38.1151 28.9037 38.2463C28.7007 38.3759 28.539 38.5605 28.4376 38.778ZM24.7471 39.8972C25.7422 39.8972 26.5489 39.0963 26.5489 38.1091C26.5489 37.1215 25.7422 36.321 24.7471 36.321C23.752 36.321 22.9453 37.1215 22.9453 38.1091C22.9453 39.0963 23.752 39.8972 24.7471 39.8972ZM34.4396 39.8972C35.4347 39.8972 36.2414 39.0963 36.2414 38.1091C36.2414 37.1215 35.4347 36.321 34.4396 36.321C33.4445 36.321 32.6378 37.1215 32.6378 38.1091C32.6378 39.0963 33.4445 39.8972 34.4396 39.8972Z" fill="white"/>
<path d="M25.1432 47.7261C26.6445 47.7261 28.9523 46.7505 29.6526 45.7411C30.3529 46.7505 32.6607 47.7261 34.162 47.7261C35.7009 47.7261 36.6944 47.4153 37.7404 46.6088C38.4124 46.0917 39.2232 44.9057 39.2232 43.7456C39.067 43.8531 38.9241 43.9557 38.7886 44.053C38.0369 44.5934 37.5276 44.9598 36.3315 44.9598C34.7275 44.9598 33.7038 44.0181 32.851 43.2338C32.2423 42.6739 31.7208 42.1943 31.1376 42.1943C30.5903 42.1943 30.265 42.5288 29.9631 42.8396C29.8595 42.9459 29.7587 43.05 29.6526 43.1365C29.5465 43.05 29.4457 42.9459 29.3421 42.8396C29.0402 42.5288 28.7149 42.1943 28.1676 42.1943C27.5844 42.1943 27.0628 42.6739 26.4542 43.2338C25.6014 44.0181 24.5777 44.9598 22.9737 44.9598C21.7776 44.9598 21.2682 44.5934 20.5165 44.053C20.3813 43.9557 20.2383 43.8531 20.082 43.7456C20.082 44.9057 20.893 46.0917 21.5647 46.6088C22.6108 47.4153 23.6043 47.7261 25.1432 47.7261Z" fill="white"/>
</svg>
