<svg width="176" height="35" viewBox="0 0 176 35" fill="none" xmlns="http://www.w3.org/2000/svg">
<path fill-rule="evenodd" clip-rule="evenodd" d="M35.7969 19.8956C43.0571 15.5726 45.4196 12.409 45.4196 8.38409C45.4196 4.35919 42.6096 0.515625 34.3562 0.515625C27.5798 0.515625 23.5137 3.35228 23.5137 9.57232H32.0974C32.0974 7.46372 33.0003 6.48703 34.1836 6.48703C35.1783 6.48703 36.0732 7.04887 36.0732 8.55992C36.0732 13.1645 23.5083 21.1717 23.5083 21.1717L18.9274 13.1865L25.1755 1.21483H14.8303L9.73056 12.409V1.20109H0.134766V26.5675H9.73056V14.0107L15.4813 26.5675H45.4196V19.9601H35.7969V19.8956Z" fill="white"/>
<path fill-rule="evenodd" clip-rule="evenodd" d="M47.6777 25.86C50.4608 25.86 50.8408 25.61 50.8408 23.4093V4.8536C50.8408 2.5829 50.5605 2.36997 47.6777 2.36997V1.69824H58.0687V2.35212C55.2492 2.35212 54.9689 2.63784 54.9689 4.65441V23.5343C54.9689 25.6292 55.4218 25.8778 58.0687 25.8778V26.5867H47.6777V25.86Z" fill="white"/>
<path fill-rule="evenodd" clip-rule="evenodd" d="M59.2169 25.8597C61.4083 25.8597 61.756 25.6481 61.756 23.9763V11.6997C61.756 10.0005 61.4447 9.85763 59.2169 9.85763V9.1804C61.2722 9.1804 63.9515 9.11171 65.6227 9.00594V12.0912C66.4973 10.1035 68.4569 8.84522 70.5931 8.90017C74.4193 8.90017 75.8465 11.381 75.8465 14.149V23.9942C75.8465 25.6289 76.1942 25.8775 78.2818 25.8775V26.5864H69.8154V25.8597C71.7683 25.8597 72.0109 25.6481 72.0109 23.9763V13.8647C72.0109 11.9855 71.4192 10.3549 69.4677 10.3549C66.8922 10.3549 65.6051 12.8742 65.6051 15.568V24.1549C65.6051 25.6481 65.9892 25.8597 67.7965 25.8597V26.5685H59.2129L59.2169 25.8597Z" fill="white"/>
<path fill-rule="evenodd" clip-rule="evenodd" d="M79.4336 22.0284V10.0004H77.2422V9.21741L77.7975 9.18033C80.8972 8.96878 82.2207 5.49748 82.4646 2.54543C82.4646 2.3696 82.4956 2.12234 82.4956 1.94238H83.2962V9.18033H87.3622V10.0004H83.2962V22.152C83.2962 24.5656 83.8204 25.3761 85.0037 25.3761C86.3959 25.3761 86.7787 23.5655 86.7787 21.968V21.3512H87.5105V22.3086C87.5105 25.2181 86.2908 26.8857 83.404 26.8857C81.2085 26.8857 79.4336 25.4681 79.4336 22.0284Z" fill="white"/>
<path fill-rule="evenodd" clip-rule="evenodd" d="M99.5962 16.691V15.7061C99.5962 13.1497 99.0396 9.42425 96.1851 9.42425C93.1581 9.42425 92.5705 13.6099 92.5301 16.2034V16.6993L99.5962 16.691ZM88.1621 17.768C88.1621 12.4821 91.5368 8.79785 96.2026 8.79785C101.173 8.79785 103.824 12.5933 103.824 17.3133V17.5235H92.5301V18.3395C92.5301 21.8904 93.4694 25.7903 97.4048 25.7903C100.395 25.7903 102.28 23.4496 102.939 20.8258H103.67C102.975 24.5101 100.509 26.9635 96.6366 26.9635C91.4856 26.9635 88.1796 23.488 88.1796 17.7543L88.1621 17.768Z" fill="white"/>
<path fill-rule="evenodd" clip-rule="evenodd" d="M122.242 25.8601C124.468 25.8601 124.785 25.6101 124.785 23.7652V11.843C124.785 10.0696 124.572 9.85806 122.242 9.85806V9.18083C124.351 9.22479 126.463 9.15473 128.565 8.96928V12.1645C129.212 10.1603 131.055 8.81131 133.125 8.8263C135.212 8.8263 136.535 10.1067 136.535 12.0917C136.535 13.7579 135.456 15.2498 133.753 15.2498C132.533 15.2498 131.769 14.5409 131.769 13.4406C131.769 11.7002 133.753 11.4557 133.753 10.7097C133.753 10.1768 133.161 9.92674 132.533 9.92674C130.373 9.92674 129.018 12.2702 128.598 13.8651V23.6952C128.598 25.7172 129.158 25.8601 131.246 25.8601V26.5689H122.211L122.242 25.8601Z" fill="white"/>
<path fill-rule="evenodd" clip-rule="evenodd" d="M138.83 3.82558C138.83 2.43404 139.937 1.30762 141.302 1.30762C142.667 1.30762 143.773 2.43404 143.773 3.82558C143.773 5.21712 142.667 6.34354 141.302 6.34354C139.937 6.34354 138.83 5.21712 138.83 3.82558ZM137.127 25.8595C139.562 25.8595 139.702 25.6479 139.702 23.7646V12.3768C139.702 10.0333 139.422 9.85743 137.127 9.85743V9.1802C139.271 9.21592 141.415 9.06344 143.533 8.72002V23.6945C143.533 25.6479 143.809 25.8595 146.213 25.8595V26.5683H137.127V25.8595Z" fill="white"/>
<path fill-rule="evenodd" clip-rule="evenodd" d="M147.424 22.0284V10.0004H145.232V9.21741L145.788 9.18033C148.887 8.96878 150.211 5.49748 150.455 2.54543C150.455 2.3696 150.49 2.12234 150.49 1.94238H151.29V9.18033H155.357V10.0004H151.29V22.152C151.29 24.5656 151.811 25.3761 152.994 25.3761C154.39 25.3761 154.769 23.5655 154.769 21.968V21.3512H155.501V22.3086C155.501 25.2181 154.281 26.8857 151.394 26.8857C149.199 26.8857 147.424 25.4681 147.424 22.0284Z" fill="white"/>
<path fill-rule="evenodd" clip-rule="evenodd" d="M156.261 30.7911C156.177 29.4655 157.164 28.3226 158.463 28.2388C158.541 28.2333 158.621 28.2333 158.7 28.236C159.847 28.236 160.786 28.9435 160.786 30.188C160.786 32.0288 158.835 31.923 158.835 32.7431C158.835 33.3791 159.64 33.6264 160.335 33.6264C163.118 33.6264 165.034 29.3734 165.797 26.6741C165.07 24.9337 162.77 19.7892 159.603 12.7683C158.487 10.3191 157.932 9.85749 156.505 9.85749V9.18164H165.59V9.85749C162.878 9.85749 162.838 10.3548 163.813 12.5884C164.997 15.425 166.842 19.6148 167.785 21.7426C168.305 20.3607 169.873 16.1709 170.812 13.5829C172.032 10.2449 171.579 9.85749 168.513 9.85749V9.18164H175.338V9.85749C173.455 9.85749 173.039 10.1061 171.928 13.017C170.08 17.8372 168.2 22.7372 166.322 27.5629C165.277 30.2567 163.71 34.3365 160.195 34.3365C158.072 34.3365 156.261 33.0604 156.261 30.7911Z" fill="white"/>
<path fill-rule="evenodd" clip-rule="evenodd" d="M112.864 33.701C110.044 33.701 107.121 32.8809 107.121 29.7599C107.155 28.4769 107.943 27.3436 109.118 26.8862C110.198 27.0661 111.829 27.2076 113.365 27.3464C115.28 27.5263 117.232 27.8437 118.136 28.3038C118.782 28.6596 119.163 29.3684 119.112 30.1144C119.098 32.4949 115.651 33.701 112.864 33.701ZM112.24 9.39782C114.883 9.39782 115.339 12.6576 115.339 15.214C115.339 17.5891 114.919 20.8914 112.24 20.8914C109.562 20.8914 109.244 17.5891 109.244 15.1069C109.244 12.626 109.629 9.39782 112.24 9.39782ZM113.352 23.9438C110.044 23.658 107.676 23.3407 107.676 22.2033C107.676 21.5316 108.269 21.103 108.897 20.853C109.969 21.3118 111.12 21.5426 112.28 21.5316C115.831 21.5316 119.486 19.118 119.486 15.1439C119.486 13.0161 118.724 11.207 117.191 10.1396L116.825 9.89097H120.358V9.11209H118.1C116.769 9.13819 115.439 9.08325 114.116 8.94588C113.926 8.91428 113.734 8.88269 113.546 8.85933C113.502 8.85521 113.458 8.85521 113.415 8.85933C113.036 8.80988 112.655 8.78516 112.272 8.78516C108.657 8.78516 105.139 11.0559 105.139 15.1714C105.04 17.4916 106.335 19.64 108.408 20.6016C107.121 21.0233 105.102 21.8764 105.139 23.8655C105.139 25.4589 106.878 26.3463 108.342 26.7021C106.841 27.2365 104.547 28.5126 104.547 30.3575C104.547 33.5815 108.965 34.3632 112.516 34.3632C117.078 34.3632 121.709 32.6653 121.709 28.8382C121.709 25.6485 119.166 24.4561 113.352 23.9438Z" fill="white"/>
</svg>
