<svg width="136" height="41" viewBox="0 0 136 41" fill="none" xmlns="http://www.w3.org/2000/svg">
<path fill-rule="evenodd" clip-rule="evenodd" d="M129.439 4.49258C130.598 4.34766 131.468 5.0723 131.323 6.08679C130.018 15.3621 128.569 24.7824 127.265 33.9129C127.12 34.6375 126.395 35.2172 125.381 35.2172C103.497 34.3477 81.4677 33.9129 59.4387 34.0578C58.4242 34.0578 57.6995 33.3332 57.8445 32.4636C58.1343 31.3042 58.2793 30.2897 58.5691 29.1303C58.5691 28.9853 58.714 28.9853 58.714 28.9853C59.4387 28.8404 60.0184 28.6955 60.1633 28.5506C60.1633 28.5506 59.5836 28.6955 58.714 28.6955C41.0329 30.4346 23.4966 32.6085 5.96041 35.2172C4.80099 35.3621 3.93142 34.6375 4.07635 33.623C5.3807 24.2027 6.82997 14.9274 8.13432 5.65201C8.27925 4.92737 9.00389 4.34766 10.0184 4.34766C29.0039 5.21722 48.1343 5.50708 67.1198 5.65201C68.1343 5.65201 68.859 6.37664 68.714 7.24621C68.4242 8.55055 68.1343 9.99983 67.8445 11.3042C88.4242 9.56505 109.004 7.39113 129.439 4.49258ZM75.9604 14.4926C72.9169 14.7824 69.8735 15.0723 66.83 15.3621C66.685 15.3621 66.685 15.3621 66.685 15.5071C65.5256 20.5795 64.5111 25.5071 63.3517 30.5795C63.3517 30.7245 63.4966 30.7245 63.4966 30.7245H64.801C64.9459 30.7245 65.0908 30.7245 65.2358 30.7245H66.2503C66.83 30.7245 67.2648 30.7245 67.8445 30.7245H68.4242C68.714 30.7245 69.1488 30.7245 69.4387 30.7245H70.1633C70.3082 30.7245 70.4532 30.7245 70.5981 30.7245H72.0474C72.3372 30.7245 72.772 30.7245 73.2068 30.7245C73.2068 30.7245 73.3517 30.7245 73.3517 30.5795C73.4966 29.8549 73.4966 29.71 73.7865 28.2607C73.7865 28.1158 73.7865 28.1158 73.6416 28.1158C71.9024 28.1158 69.5836 28.1158 67.6995 28.2607C67.6995 28.1158 67.6995 27.9708 67.6995 27.9708C67.9894 26.6665 68.1343 25.7969 68.4242 24.4926C68.1343 24.4926 67.8445 24.4926 67.8445 24.3477V24.2027C68.2792 24.2027 71.1778 24.0578 72.1923 24.0578C72.3372 24.0578 72.3372 24.0578 72.3372 23.9129C72.4821 23.1882 72.6271 22.3187 72.9169 21.594C72.9169 21.4491 72.9169 21.4491 72.772 21.4491C71.6126 21.4491 70.4532 21.594 69.2937 21.594C69.1488 21.594 69.1488 21.4491 69.1488 21.4491C69.4387 20.2897 69.5836 19.4201 69.8735 18.2607C69.5836 18.2607 69.4387 18.2607 69.2937 18.1158V17.9708C69.8735 17.9708 74.0763 17.681 75.5256 17.5361C75.6705 17.5361 75.6706 17.5361 75.6706 17.3911C75.8155 16.6665 75.9604 15.3621 76.2503 14.6375C76.2503 14.6375 76.1053 14.4926 75.9604 14.4926ZM113.642 10.8694C112.627 11.0143 111.468 11.0143 110.453 11.1593C110.453 11.1593 110.308 11.1593 110.308 11.3042C109.584 14.9274 109.004 18.5506 108.279 22.1737C108.279 22.3187 107.989 22.3187 107.989 22.1737C107.844 21.4491 107.7 20.7245 107.41 19.8549C106.83 17.1013 106.105 14.4926 105.381 11.8839C105.381 11.739 105.236 11.739 105.236 11.739C104.946 11.739 104.511 11.739 104.076 11.8839L102.917 12.0288C102.482 12.0288 102.192 12.0288 101.758 12.1737C101.758 12.1737 101.613 12.1737 101.613 12.3187C100.163 20.7245 99.8735 22.8984 99.5836 24.6375V25.0723V25.2172V25.5071C99.4387 26.6665 99.1488 27.9708 98.714 30.8694C98.714 30.8694 98.714 31.0143 98.859 31.0143C99.1488 31.0143 99.2937 31.0143 99.4387 31.0143H100.018H100.163H101.323C101.468 31.0143 101.613 31.0143 101.902 31.0143C101.902 31.0143 102.047 31.0143 102.047 30.8694C102.772 27.3911 103.352 24.0578 104.076 20.5795C104.076 20.4346 104.366 20.4346 104.366 20.5795C104.511 21.3042 104.801 22.1737 104.946 22.8984C105.671 25.652 106.83 28.1158 107.555 30.8694C107.555 30.8694 107.555 31.0143 107.7 31.0143C107.989 31.0143 108.134 31.0143 108.279 31.0143H109.729C109.873 31.0143 110.018 31.0143 110.163 31.0143C110.163 31.0143 110.308 31.0143 110.308 30.8694C111.468 23.9129 111.902 21.4491 112.337 19.2752L112.482 18.6955C112.772 16.8114 113.062 14.9274 113.642 10.8694ZM89.2937 13.1882C88.2793 13.3332 87.2648 13.3332 86.2503 13.4781C86.1053 13.4781 85.9604 13.623 85.9604 13.623C84.3662 17.3911 82.9169 21.0143 81.4677 24.6375C81.3227 24.7824 81.1778 24.7824 81.1778 24.6375C81.1778 21.1593 81.0329 17.5361 81.0329 14.0578C81.0329 13.9129 80.8879 13.9129 80.743 13.9129C79.5836 14.0578 78.714 14.0578 77.5546 14.2027C77.5546 14.2027 77.4097 14.2027 77.4097 14.3477C77.5546 19.4201 77.8445 24.4926 78.1343 30.5795C78.1343 30.5795 78.1343 30.7245 78.2793 30.7245C79.4387 30.7245 80.4532 30.7245 81.6126 30.7245C81.6126 30.7245 81.7575 30.7245 81.7575 30.5795C84.3662 25.0723 86.9749 19.4201 89.5836 13.3332C89.5836 13.3332 89.4387 13.1882 89.2937 13.1882ZM126.395 9.56505L115.671 10.5795C115.671 10.5795 115.526 10.5795 115.526 10.7245C115.381 11.739 115.091 12.6085 114.946 13.7679C114.946 13.9129 114.946 13.9129 115.091 13.9129L118.424 13.623C118.569 13.623 118.569 13.623 118.569 13.7679C117.555 19.4201 116.685 25.2172 115.671 30.7245C115.671 30.7245 115.671 30.8694 115.815 30.8694C116.975 30.8694 118.134 30.8694 119.294 30.8694C119.294 30.8694 119.439 30.8694 119.439 30.7245C120.453 25.0723 121.323 19.2752 122.337 13.4781C122.047 13.4781 121.613 13.4781 121.468 13.3332V13.1882C121.758 13.1882 122.627 13.0433 123.497 13.0433H124.221C124.946 13.0433 125.526 12.8984 125.96 12.8984C125.96 12.8984 126.105 12.8984 126.105 12.7535C126.105 11.594 126.25 10.8694 126.395 9.56505ZM99.8735 12.1737L90.8879 13.0433C90.8879 13.0433 90.743 13.0433 90.743 13.1882C89.7285 19.1303 88.5691 24.7824 87.5546 30.5795C87.5546 30.7245 87.6995 30.7245 87.6995 30.7245H96.685C96.685 30.7245 96.83 30.7245 96.83 30.5795C96.9749 29.71 97.1198 28.8404 97.2648 27.8259C97.2648 27.681 97.2647 27.681 97.1198 27.681C95.3807 27.681 93.6416 27.8259 91.9024 27.8259C91.7575 27.8259 91.7575 27.681 91.7575 27.681C92.0474 26.2317 92.1923 24.7824 92.4821 23.3332C92.1923 23.3332 91.9024 23.3332 91.7575 23.1882V23.0433C92.0474 23.0433 92.9169 23.0433 93.9314 22.8984H94.6561C95.3807 22.8984 95.9604 22.8984 96.2503 22.7535C96.3952 22.7535 96.3952 22.7535 96.3952 22.6085C96.5401 21.8839 96.685 21.0143 96.83 20.2897C96.83 20.1448 96.83 20.1448 96.685 20.1448L93.2068 20.4346C93.0619 20.4346 93.0619 20.2897 93.0619 20.2897C93.3517 18.9853 93.6416 17.5361 93.7865 16.0868C93.4966 16.0868 93.2068 16.0868 93.0619 15.9419V15.7969C93.6416 15.7969 97.6995 15.3621 99.4387 15.2172C99.5836 15.2172 99.5836 15.2172 99.5836 15.0723C99.7285 14.2027 99.8734 13.3332 100.018 12.4636C100.018 12.1737 99.8735 12.1737 99.8735 12.1737ZM29.2937 9.13027C27.8445 9.13027 26.2503 9.13027 24.801 9.13027C24.801 9.13027 24.6561 9.13027 24.6561 9.27519C24.2213 10.5795 23.3517 12.7535 22.6271 14.9274L22.3372 15.7969C21.1778 18.8404 20.1633 21.8839 20.0184 22.4636C20.0184 21.3042 19.8735 12.6085 19.7285 9.27519C19.7285 9.13027 19.5836 9.13027 19.5836 9.13027C17.9894 9.13027 16.5401 9.13027 14.9459 9.13027C14.801 9.13027 14.801 9.13027 14.801 9.27519C13.6416 15.652 12.4821 22.8984 11.3227 29.4201C11.3227 29.565 11.4677 29.565 11.4677 29.565L14.3662 29.2752C14.5111 29.2752 14.5111 29.2752 14.5111 29.1303C15.0908 26.2317 15.8155 21.8839 16.3952 19.1303L16.5401 18.4056C16.685 17.8259 16.83 17.2462 16.83 16.9564C16.83 16.8114 16.9749 16.8114 16.9749 16.9564C16.9749 19.2752 16.9749 26.0868 17.1198 28.8404C17.1198 28.9853 17.2648 28.9853 17.2648 28.9853C18.1343 28.8404 18.859 28.8404 19.7285 28.6955C19.7285 28.6955 19.8735 28.6955 19.8735 28.5506C20.8879 25.7969 23.6416 19.2752 24.5111 16.9564C24.5111 16.8114 24.801 16.9564 24.6561 16.9564C24.2213 18.9853 23.3517 24.4926 22.6271 28.1158C22.6271 28.2607 22.772 28.2607 22.772 28.2607C23.7865 28.1158 24.801 28.1158 25.8155 27.9708C25.9604 27.9708 25.9604 27.9708 25.9604 27.8259C27.1198 21.594 27.9894 15.0723 29.1488 9.13027C29.4387 9.13027 29.4387 9.13027 29.2937 9.13027ZM39.4387 9.13027C38.1343 9.13027 36.9749 9.13027 35.6706 9.13027C35.6706 9.13027 35.5256 9.13027 35.5256 9.27519C33.0619 15.0723 30.5981 21.594 28.1343 27.8259C28.1343 27.9708 28.1343 28.1158 28.2792 28.1158C29.2937 27.9708 30.3082 27.8259 31.3227 27.8259C31.3227 27.8259 31.4677 27.8259 31.4677 27.681C31.9024 26.5216 32.4821 25.2172 32.9169 24.0578C32.6271 24.0578 32.3372 24.0578 32.3372 23.9129C32.4821 23.9129 33.2068 23.9129 34.0763 23.7679H34.6561C35.3807 23.7679 35.9604 23.623 36.2503 23.623C36.3952 23.623 36.3952 23.7679 36.3952 23.7679C36.3952 24.7824 36.3952 26.0868 36.3952 27.1013H36.5401C37.6995 26.9564 38.5691 26.9564 39.8735 26.8114C40.0184 26.8114 40.1633 26.6665 40.1633 26.6665C40.0184 20.8694 39.8735 15.0723 39.7285 9.27519C39.7285 9.13027 39.5836 9.13027 39.4387 9.13027ZM44.9459 9.13027C44.801 9.13027 44.801 9.13027 44.801 9.27519C43.9314 14.3477 43.6416 15.652 43.4966 16.6665V16.9564C43.2068 18.1158 43.0619 19.565 41.7575 26.3766C41.7575 26.5216 41.7575 26.6665 41.9024 26.5216C43.7865 26.3766 43.2068 26.3766 45.3807 26.2317C45.5256 26.2317 45.5256 26.2317 45.5256 26.0868C47.6995 13.9129 46.9749 18.4056 48.4242 9.27519C48.4242 9.13027 48.4242 9.13027 48.2792 9.13027C47.1198 9.13027 46.1053 9.13027 44.9459 9.13027ZM62.9169 9.13027H60.0184C59.8735 9.13027 59.8735 9.13027 59.8735 9.27519C59.2937 12.1737 58.5691 15.0723 57.9894 17.9708C57.9894 18.1158 57.6995 18.1158 57.6995 17.9708C57.5546 17.3911 55.8155 11.594 55.0908 9.27519C55.0908 9.13027 54.9459 9.13027 54.9459 9.13027C53.9314 9.13027 52.6271 9.13027 51.6126 9.13027C51.4677 9.13027 51.4677 9.13027 51.4677 9.27519C50.8879 12.4636 50.743 13.9129 50.4532 15.0723V15.3621V15.652C50.1633 17.3911 49.7285 19.2752 48.714 25.652C48.714 25.7969 48.714 25.9419 48.859 25.7969C51.1778 25.5071 50.3082 25.652 51.9024 25.5071C52.0474 25.5071 52.0474 25.5071 52.0474 25.3621C52.6271 22.3187 53.3517 19.2752 53.9314 16.3766C53.9314 16.2317 54.2213 16.2317 54.2213 16.3766C54.3662 16.9564 54.6561 17.681 54.801 18.2607C54.9459 18.8404 55.2358 19.565 55.5256 20.4346L55.8155 21.1593C56.3952 22.8984 56.9749 24.4926 57.1198 24.9274C57.1198 25.0723 57.2648 25.0723 57.2648 25.0723L59.8735 24.9274C60.0184 24.9274 60.0184 24.9274 60.0184 24.7824C60.3082 23.623 62.3372 14.2027 63.4966 9.27519C63.0619 9.13027 63.0619 9.13027 62.9169 9.13027ZM36.685 14.9274C36.685 16.8114 36.5401 18.6955 36.5401 20.5795C36.5401 20.7245 36.3952 20.7245 36.3952 20.7245C35.6706 20.7245 35.0908 20.8694 34.3662 20.8694C34.2213 20.8694 34.2213 20.7245 34.2213 20.5795C34.9459 18.5506 35.6706 16.6665 36.3952 14.7824C36.3952 14.6375 36.685 14.7824 36.685 14.9274Z" fill="white"/>
<path fill-rule="evenodd" clip-rule="evenodd" d="M5.38088 5.07256L8.42436 5.21749C8.71421 4.78271 9.29392 4.49285 10.0186 4.49285H10.1635L10.4533 2.75372L4.07653 2.46387C3.35189 2.46387 2.77218 2.89865 2.77218 3.62329L0.0185588 33.9131C-0.126369 34.7827 0.598269 35.3624 1.46783 35.3624L3.06204 35.2175L3.9316 6.52184C3.9316 5.50734 4.65624 5.07256 5.38088 5.07256Z" fill="white"/>
<path fill-rule="evenodd" clip-rule="evenodd" d="M64.0271 5.65218L11.9981 0C11.2735 0 10.6938 0.434784 10.6938 1.01449L10.5488 2.6087L60.9836 5.50725C61.9981 5.65217 63.0126 5.65218 64.0271 5.65218Z" fill="white"/>
<path fill-rule="evenodd" clip-rule="evenodd" d="M10.4539 2.75391L10.1641 4.49304C27.1206 5.21767 43.9322 5.65246 60.8887 5.65246L10.4539 2.75391Z" fill="white"/>
<path fill-rule="evenodd" clip-rule="evenodd" d="M60.164 28.5508C60.164 28.5508 59.5842 28.6957 58.7147 28.6957C41.0335 30.4348 23.4973 32.6088 5.96105 35.2174C5.38134 35.3624 4.80163 35.0725 4.51178 34.7827L3.0625 34.9276V37.1015C3.0625 37.2464 3.0625 37.5363 3.20743 37.6812C3.49728 38.116 3.93207 38.4059 4.51178 38.4059L57.99 29.1305C58.5697 28.9856 59.1495 28.8406 59.5842 28.6957C59.8741 28.6957 60.019 28.5508 60.164 28.5508Z" fill="white"/>
<path fill-rule="evenodd" clip-rule="evenodd" d="M4.0766 33.7679C5.38094 24.3476 6.83022 15.0723 8.13457 5.7969C8.13457 5.65198 8.2795 5.36212 8.42442 5.21719L5.38094 5.07227C4.65631 5.07227 4.0766 5.65198 4.0766 6.37662L3.20703 35.0723L4.65631 34.9273C4.22152 34.4926 4.0766 34.2027 4.0766 33.7679Z" fill="white"/>
<path fill-rule="evenodd" clip-rule="evenodd" d="M134.33 5.08506L132.735 5.22999L131.866 33.9256C131.866 34.6503 131.286 35.23 130.562 35.23L126.504 34.9401C126.214 35.0851 125.924 35.23 125.634 35.23L125.489 35.6648L125.199 37.5488L131.576 37.8387C132.301 37.8387 132.88 37.4039 132.88 36.6793L135.634 6.38941C135.779 5.66477 135.054 4.94013 134.33 5.08506Z" fill="white"/>
<path fill-rule="evenodd" clip-rule="evenodd" d="M125.235 37.5359L69.1482 34.0576C67.554 34.0576 65.8149 34.0576 64.2207 34.0576L123.351 40.1446C124.221 40.1446 124.945 39.7098 124.945 39.1301L125.235 37.5359Z" fill="white"/>
<path fill-rule="evenodd" clip-rule="evenodd" d="M125.38 35.217C106.685 34.4924 87.989 34.0576 69.1484 34.0576L125.235 37.5359L125.525 35.6518L125.67 35.217C125.525 35.217 125.525 35.217 125.38 35.217Z" fill="white"/>
<path fill-rule="evenodd" clip-rule="evenodd" d="M131.323 5.36245L132.772 5.21752V3.04361C132.772 2.89868 132.772 2.60882 132.627 2.4639C132.337 2.02911 131.902 1.73926 131.323 1.73926L69.0039 11.1595C89.1488 9.27549 109.294 7.2465 129.439 4.34795C130.308 4.34795 131.033 4.78274 131.323 5.36245Z" fill="white"/>
<path fill-rule="evenodd" clip-rule="evenodd" d="M131.324 5.94183C130.019 15.3621 128.57 24.7824 127.266 33.9128C127.266 34.3476 126.976 34.7824 126.541 34.9273L130.454 35.0723C131.179 35.0723 131.758 34.4926 131.758 33.7679L132.628 5.07227L131.179 5.21719C131.324 5.65198 131.324 5.7969 131.324 5.94183Z" fill="white"/>
</svg>
