<svg width="168" height="46" viewBox="0 0 168 46" fill="none" xmlns="http://www.w3.org/2000/svg">
<g clip-path="url(#clip0_6056_1921)">
<path d="M11.2251 45.3698C11.7769 45.471 12.3287 45.5578 12.8947 45.6156C14.7624 45.8035 16.5594 45.7024 18.229 45.3554C21.5117 44.7049 24.2708 43.1292 25.9546 40.9898C30.3267 36.5665 26.1668 26.7221 26.1668 26.7221C24.7236 22.6457 22.7286 20.0581 21.6956 18.9017C21.2853 18.4535 20.7617 18.1211 20.1816 17.9476L12.4561 15.6781C11.7062 15.4612 10.9139 15.5191 10.2063 15.8227C3.65519 18.7138 1.16491 27.8931 0.358393 32.0129C0.245198 32.5911 0.160302 33.0826 0.117854 33.4296C0.0895551 33.5596 0.0754058 33.6898 0.0612566 33.8198C0.0471072 33.9644 0.0329579 34.0367 0.0329579 34.0367C-0.0660875 35.092 0.0612565 36.1472 0.372542 37.1446C1.60354 41.0766 5.82004 44.3435 11.2251 45.3698ZM10.4611 32.8802C11.126 32.7935 11.7486 33.126 12.159 33.6608C12.5551 34.1813 13.1777 34.4559 14.0267 34.5137C15.0172 34.5715 15.5406 34.3258 15.569 33.7765C15.5831 33.4874 15.4841 33.256 15.2577 33.0682C15.0313 32.8947 14.6351 32.7212 14.0549 32.5623C11.7628 31.9406 10.3336 31.2468 9.75356 30.4661C9.17344 29.6856 8.91875 28.8182 8.97535 27.8642C9.03195 26.8089 9.44228 25.8982 10.1639 25.1176C10.8007 24.4527 11.6778 24.0334 12.8239 23.8455V23.2384C12.8239 22.4433 13.4607 21.7928 14.2389 21.7928C15.0172 21.7928 15.6538 22.4433 15.6538 23.2384V23.9178C15.7246 23.9322 15.7811 23.9467 15.8519 23.9611C16.7999 24.1779 17.5781 24.5539 18.2008 25.0742C19.2195 25.9416 18.7809 27.6184 17.4932 27.9364C16.899 28.081 16.2764 27.8786 15.8661 27.416C15.5123 27.0113 14.9888 26.7944 14.3238 26.7511C13.4466 26.6933 12.9938 26.9534 12.9655 27.5172C12.9513 27.7196 13.022 27.9075 13.1494 28.0521C13.2767 28.1967 13.6871 28.3845 14.338 28.5725C15.8378 29.0062 16.9131 29.3676 17.564 29.6856C18.2149 29.9891 18.7384 30.4807 19.1346 31.1311C19.5307 31.7961 19.7147 32.5477 19.6581 33.415C19.5874 34.6293 19.0922 35.6124 18.2008 36.3785C17.5216 36.9423 16.6867 37.3181 15.6679 37.506V38.2867C15.6679 39.0817 15.0313 39.7322 14.2531 39.7322C13.4748 39.7322 12.8381 39.0817 12.8381 38.2867V37.506C12.4419 37.4482 12.1589 37.4048 12.0458 37.376C10.9421 37.1013 10.0507 36.6243 9.38568 35.9304C8.35278 34.8607 8.9895 33.0537 10.4611 32.8802Z" fill="white"/>
<path d="M13.4611 6.87495L23.2241 9.5926C23.6628 9.70825 24.1297 9.5926 24.4551 9.26012L27.2001 6.44129C27.8226 5.80524 27.6387 4.70662 26.8322 4.35968C25.9691 3.98384 25.4596 4.11394 23.8608 4.01275C21.5262 3.85374 22.3892 1.97452 20.3376 1.38184C17.4229 0.55787 16.7861 3.53572 14.2958 1.04936C13.6733 0.442225 12.9941 0.153114 12.3857 0.0230139C11.4235 -0.164908 10.6453 0.832526 10.999 1.75768L12.612 6.07989C12.7677 6.47019 13.079 6.77376 13.4611 6.87495Z" fill="white"/>
<path d="M10.2643 12.5552L22.4469 16.0679C23.4798 16.3715 24.5551 15.7499 24.8522 14.6946C25.1494 13.6394 24.5409 12.5407 23.508 12.2371L11.3255 8.72449C10.2926 8.42093 9.21721 9.04251 8.92008 10.0978C8.62294 11.153 9.24551 12.2517 10.2643 12.5552Z" fill="white"/>
<path d="M46.1316 20.333L53.1214 31.1457H53.2628L60.2951 20.2028L60.3092 36.9135L65.7851 36.8991L65.7709 14.1026L65.7567 11.3271H59.8282L53.2487 22.1544L46.6693 11.3416L40.7266 11.3561L40.7548 36.9279H46.1458L46.1316 20.333Z" fill="white"/>
<path d="M73.6939 38.2448C72.9723 38.2448 72.0809 37.9123 71.3734 37.4786L69.5482 41.4973C70.9489 42.3357 72.4063 42.8417 74.3731 42.8417C77.6274 42.8417 79.198 41.3383 80.6696 37.3485L88.013 17.2842H82.3675L81.7025 19.4236L78.1934 30.6411L73.892 17.5154L73.8212 17.2986H68.0625L75.5899 36.9437C75.123 37.9556 74.6136 38.2448 73.6939 38.2448Z" fill="white"/>
<path d="M107.667 36.8708V35.1072L92.9659 35.1216L92.9518 20.1167L92.9376 11.2988H91.084V20.1745L91.0982 36.8852L107.667 36.8708Z" fill="white"/>
<path d="M118.747 37.2894C122.257 37.2894 124.436 35.8295 126.289 33.7768L125.072 32.6781C123.572 34.3261 121.648 35.6126 118.818 35.6126C115.239 35.6126 111.984 32.9094 111.658 28.2691L126.785 28.2547C126.827 27.9656 126.827 27.85 126.812 27.5175C126.812 21.9955 123.543 17.76 118.436 17.7745C113.498 17.7745 109.791 22.0967 109.791 27.503V27.5753C109.805 33.3864 113.951 37.2894 118.747 37.2894ZM118.379 19.4224C122.567 19.4224 124.675 22.8917 124.93 26.6502L111.658 26.6646C111.97 22.5303 114.772 19.4224 118.379 19.4224Z" fill="white"/>
<path d="M137.493 37.2747C140.961 37.2747 143.21 35.5111 144.469 33.7187V36.8266H146.181L146.168 25.2043C146.168 22.9059 145.516 21.1857 144.299 19.9425C142.969 18.5982 141.003 17.9043 138.541 17.9043C136.036 17.9043 134.07 18.5692 132.074 19.5233L132.726 21.099C134.409 20.2172 136.234 19.5955 138.442 19.5955C142.191 19.5955 144.455 21.5327 144.455 25.2911V26.1006C142.7 25.6235 140.946 25.3055 138.413 25.3055C133.687 25.3055 130.433 27.5027 130.447 31.3769V31.4491C130.433 35.3088 134.084 37.2747 137.493 37.2747ZM132.3 31.319V31.2468C132.3 28.6592 134.437 26.8956 138.3 26.8956C140.918 26.8956 142.955 27.3293 144.484 27.7341V29.8591C144.484 33.2561 141.3 35.5979 137.592 35.5979C134.805 35.5979 132.3 34.0223 132.3 31.319Z" fill="white"/>
<path d="M158.731 37.2603C162.34 37.2603 164.66 35.0919 166.245 32.6489V36.8121H167.999L167.971 10.1416H166.216L166.23 22.1976C164.73 19.8558 162.367 17.7452 158.717 17.7452C154.317 17.7452 149.845 21.4459 149.859 27.5172V27.5895C149.859 33.6463 154.331 37.2603 158.731 37.2603ZM151.741 27.5027V27.4305C151.741 22.4288 154.911 19.4655 158.886 19.451C162.679 19.451 166.33 22.6601 166.33 27.4449V27.5172C166.33 32.273 162.693 35.5256 158.901 35.5256C155.081 35.54 151.756 32.4032 151.741 27.5027Z" fill="white"/>
</g>
<defs>
<clipPath id="clip0_6056_1921">
<rect width="168" height="46" fill="white"/>
</clipPath>
</defs>
</svg>
