<svg width="188" height="38" viewBox="0 0 188 38" fill="none" xmlns="http://www.w3.org/2000/svg">
<g clip-path="url(#clip0_6056_1794)">
<path fill-rule="evenodd" clip-rule="evenodd" d="M61.5356 11.5778L55.1588 26.8412C55.0686 27.0603 54.8514 27.2034 54.6139 27.2034H50.7789C50.5427 27.2034 50.3242 27.0603 50.234 26.8412L43.8598 11.5778C43.6997 11.1928 43.983 10.7646 44.406 10.7646H47.809C48.0491 10.7646 48.2663 10.9116 48.3578 11.1332L52.3566 21.0576C52.4798 21.3666 52.9155 21.3666 53.0426 21.0576L57.0401 11.1332C57.1303 10.9078 57.3475 10.7646 57.5889 10.7646H60.9932C61.4162 10.7646 61.6994 11.1928 61.5381 11.5778H61.5356Z" fill="white"/>
<path fill-rule="evenodd" clip-rule="evenodd" d="M67.6896 27.2027H64.5139C64.1887 27.2027 63.9258 26.9405 63.9258 26.615V11.3846C63.9258 11.0603 64.1887 10.7969 64.5139 10.7969H67.6896C68.0148 10.7969 68.2815 11.0603 68.2815 11.3846V26.615C68.2815 26.9405 68.0186 27.2027 67.6896 27.2027Z" fill="white"/>
<path fill-rule="evenodd" clip-rule="evenodd" d="M66.1051 3.22754C67.5646 3.22754 68.7472 4.40681 68.7472 5.86221C68.7472 7.31761 67.5646 8.49687 66.1051 8.49687C64.6455 8.49687 63.4629 7.31761 63.4629 5.86221C63.4629 4.40681 64.6455 3.22754 66.1051 3.22754Z" fill="white"/>
<path fill-rule="evenodd" clip-rule="evenodd" d="M78.7093 24.2095C80.3276 24.2095 81.2854 23.4862 81.2854 22.5666C81.2854 21.9725 80.8903 21.3823 79.4714 21.0871L76.1065 20.3981C73.1341 19.7749 71.451 18.0978 71.451 15.7291C71.451 12.5726 74.0271 10.3027 78.1872 10.3027C81.7922 10.3027 84.3785 12.0229 85.1902 14.5448C85.2969 14.8754 85.0797 15.2263 84.7354 15.2921L81.7503 15.8837C81.4683 15.9394 81.1723 15.7899 81.0821 15.5176C80.7252 14.4561 79.6429 13.7227 78.0525 13.7227C76.3021 13.7227 75.8105 14.5765 75.8105 15.3327C75.8105 15.8596 76.0061 16.4182 77.2942 16.7133L81.2219 17.5671C84.127 18.1903 85.5484 20.0016 85.5484 22.2031C85.5484 25.8194 82.6103 27.6953 78.3193 27.6953C74.9048 27.6953 71.7558 26.4451 71.0343 23.4571C70.9543 23.1353 71.1702 22.8136 71.4941 22.7465L74.7537 22.0865C75.0369 22.027 75.3329 22.1853 75.4256 22.4615C75.8512 23.7623 77.1786 24.2095 78.7144 24.2095H78.708H78.7093Z" fill="white"/>
<path fill-rule="evenodd" clip-rule="evenodd" d="M92.084 27.2027H88.9084C88.5832 27.2027 88.3164 26.9405 88.3164 26.615V11.3846C88.3164 11.0603 88.5806 10.7969 88.9084 10.7969H92.084C92.4092 10.7969 92.676 11.0603 92.676 11.3846V26.615C92.676 26.9405 92.413 27.2027 92.084 27.2027Z" fill="white"/>
<path fill-rule="evenodd" clip-rule="evenodd" d="M90.4957 3.22754C91.9552 3.22754 93.1378 4.40681 93.1378 5.86221C93.1378 7.31761 91.9552 8.49687 90.4957 8.49687C89.0361 8.49687 87.8535 7.31761 87.8535 5.86221C87.8535 4.40681 89.0361 3.22754 90.4957 3.22754Z" fill="white"/>
<path fill-rule="evenodd" clip-rule="evenodd" d="M109.02 19.0153C109.02 15.9575 106.643 14.1158 104.367 14.1158C102.093 14.1158 99.611 15.9575 99.611 19.0153C99.611 22.073 101.989 23.9147 104.367 23.9147C106.746 23.9147 109.02 22.073 109.02 19.0153ZM113.244 19.0153C113.244 24.1769 109.184 27.6311 104.364 27.6311C99.5449 27.6311 95.3848 24.1782 95.3848 19.0153C95.3848 13.8523 99.4445 10.3994 104.364 10.3994C109.283 10.3994 113.244 13.8523 113.244 19.0153Z" fill="white"/>
<path fill-rule="evenodd" clip-rule="evenodd" d="M131.313 27.2027H128.074C127.749 27.2027 127.482 26.9405 127.482 26.6149V18.3803C127.482 16.4221 126.001 14.7121 124.041 14.5803C121.889 14.4372 120.094 16.1384 120.094 18.2512V26.6149C120.094 26.9405 119.83 27.2027 119.501 27.2027H116.262C115.937 27.2027 115.67 26.9405 115.67 26.6149V18.4475C115.67 14.0686 119.079 10.3383 123.474 10.1711C128.088 9.99502 131.903 13.6886 131.903 18.2448V26.6086C131.903 26.9341 131.638 27.1963 131.311 27.1963L131.313 27.2027Z" fill="white"/>
<path fill-rule="evenodd" clip-rule="evenodd" d="M138.996 27.2032H135.82C135.495 27.2032 135.229 26.941 135.229 26.6155V6.45394C135.229 6.12841 135.493 5.86621 135.82 5.86621H138.996C139.321 5.86621 139.588 6.12841 139.588 6.45394V26.6155C139.588 26.941 139.324 27.2032 138.996 27.2032Z" fill="white"/>
<path fill-rule="evenodd" clip-rule="evenodd" d="M147.379 27.2027H144.203C143.878 27.2027 143.611 26.9405 143.611 26.615V11.3846C143.611 11.0603 143.876 10.7969 144.203 10.7969H147.379C147.704 10.7969 147.968 11.0603 147.968 11.3846V26.615C147.968 26.9405 147.704 27.2027 147.379 27.2027Z" fill="white"/>
<path fill-rule="evenodd" clip-rule="evenodd" d="M145.791 3.22754C147.25 3.22754 148.433 4.40681 148.433 5.86221C148.433 7.31761 147.25 8.49687 145.791 8.49687C144.331 8.49687 143.148 7.31761 143.148 5.86221C143.148 4.40681 144.331 3.22754 145.791 3.22754Z" fill="white"/>
<path fill-rule="evenodd" clip-rule="evenodd" d="M167.593 27.2027H164.353C164.028 27.2027 163.762 26.9405 163.762 26.6149V18.3803C163.762 16.4221 162.28 14.7121 160.32 14.5803C158.169 14.4372 156.374 16.1384 156.374 18.2512V26.6149C156.374 26.9405 156.109 27.2027 155.784 27.2027H152.545C152.219 27.2027 151.953 26.9405 151.953 26.6149V18.4475C151.953 14.0686 155.361 10.3383 159.758 10.1711C164.371 9.99502 168.185 13.6886 168.185 18.2448V26.6086C168.185 26.9341 167.922 27.1963 167.595 27.1963L167.593 27.2027Z" fill="white"/>
<path fill-rule="evenodd" clip-rule="evenodd" d="M186.862 26.1911L179.359 18.9154C179.21 18.7723 179.21 18.5341 179.359 18.3885L186.03 11.8031C186.404 11.4345 186.14 10.7973 185.613 10.7973H181.819C181.659 10.7973 181.5 10.8607 181.393 10.9797L176.504 16.0831C176.275 16.3225 175.869 16.1629 175.869 15.8323V6.45394C175.869 6.12841 175.605 5.86621 175.279 5.86621H172.104C171.778 5.86621 171.512 6.12841 171.512 6.45394V26.6155C171.512 26.9397 171.775 27.2032 172.104 27.2032H175.279C175.605 27.2032 175.869 26.9397 175.869 26.6155V21.4551C175.869 21.1232 176.278 20.9611 176.508 21.203L181.919 27.0119C182.03 27.131 182.188 27.1981 182.352 27.1981H186.45C186.98 27.1981 187.241 26.5547 186.863 26.1861L186.862 26.1911Z" fill="white"/>
<path fill-rule="evenodd" clip-rule="evenodd" d="M9.08069 14.8604C6.87042 9.57589 9.22423 3.53262 14.3371 1.07402C11.9185 0.230421 9.18993 0.239288 6.63923 1.29569C1.26726 3.51995 -1.33807 9.57462 0.682933 14.9567C0.768041 15.1822 0.989068 15.3316 1.23423 15.3316H8.76947C9.01209 15.3316 9.17596 15.0859 9.07942 14.863L9.08069 14.8604Z" fill="white"/>
<mask id="mask0_6056_1794" style="mask-type:luminance" maskUnits="userSpaceOnUse" x="14" y="0" width="20" height="19">
<g opacity="0.7">
<path d="M14.334 0H33.8976V18.7867H14.334V0Z" fill="white"/>
</g>
</mask>
<g mask="url(#mask0_6056_1794)">
<path fill-rule="evenodd" clip-rule="evenodd" d="M20.7298 7.08299L25.4692 18.4247C25.5606 18.6439 25.7766 18.787 26.0154 18.787H33.5583C33.8009 18.787 33.9647 18.5413 33.8707 18.3183L28.9789 6.61305C26.6924 1.13725 20.3843 -1.45182 14.8866 0.828185C14.6986 0.907985 14.5169 0.989052 14.334 1.07392C17.1235 2.04672 19.5002 4.15065 20.7247 7.08172L20.7298 7.08299Z" fill="white"/>
</g>
<path fill-rule="evenodd" clip-rule="evenodd" d="M15.7903 30.9188L11.0509 19.5771C10.9594 19.358 10.7435 19.2148 10.5047 19.2148H2.96308C2.72045 19.2148 2.55659 19.4606 2.65313 19.6835L7.54621 31.3888C9.8327 36.8608 16.1409 39.4498 21.6386 37.1736C21.8253 37.0938 22.0082 37.0128 22.1899 36.9279C19.4016 35.9551 17.025 33.8512 15.7992 30.9201H15.7928H15.7903V30.9188Z" fill="white"/>
<path fill-rule="evenodd" clip-rule="evenodd" d="M27.4386 23.1372C29.6489 28.4217 27.2951 34.465 22.1797 36.9236C24.5983 37.7698 27.3281 37.7596 29.8775 36.7019C35.2495 34.4777 37.8548 28.423 35.8351 23.0409C35.75 22.8155 35.5277 22.666 35.2838 22.666H27.7486C27.5059 22.666 27.3421 22.9118 27.4386 23.1347V23.1372Z" fill="white"/>
<path fill-rule="evenodd" clip-rule="evenodd" d="M18.2586 22.7C20.3101 22.7 21.9703 21.0432 21.9703 18.9988C21.9703 16.9556 20.3088 15.2988 18.2586 15.2988C16.2084 15.2988 14.5469 16.9556 14.5469 18.9988C14.5469 21.0432 16.2084 22.7 18.2586 22.7Z" fill="white"/>
</g>
<defs>
<clipPath id="clip0_6056_1794">
<rect width="188" height="38" fill="white"/>
</clipPath>
</defs>
</svg>
