<svg width="167" height="44" viewBox="0 0 167 44" fill="none" xmlns="http://www.w3.org/2000/svg">
<path fill-rule="evenodd" clip-rule="evenodd" d="M43.5723 35.5552H48.7645V0.955078H43.5723V35.5552Z" fill="white"/>
<path fill-rule="evenodd" clip-rule="evenodd" d="M23.3102 13.4477C23.3102 12.6291 22.8101 12.184 22.2367 12.184C21.6661 12.184 21.1535 12.6166 21.1535 13.4477V30.112C21.1535 30.943 21.6661 31.3772 22.2367 31.3772C22.8115 31.3772 23.3102 30.9228 23.3102 30.112V24.6511H28.4969V29.6856C28.4969 33.7692 25.6466 35.8966 22.2132 35.8966C18.929 35.8966 15.9668 33.8377 15.9668 29.6856V13.871C15.9668 9.72823 18.9304 7.66309 22.2132 7.66309C25.5886 7.66309 28.4969 9.79359 28.4969 13.871V18.3794H23.3102V13.4477Z" fill="white"/>
<path fill-rule="evenodd" clip-rule="evenodd" d="M34.9507 14.1982C34.9507 13.3671 35.4619 12.9345 36.0325 12.9345C36.6059 12.9345 37.1074 13.3827 37.1074 14.1982V35.5593H42.2983V12.6731C42.2983 8.94273 40.1526 7.65727 38.5153 7.65727C36.686 7.65727 35.3997 9.14815 35.0446 9.90449H34.9617V0.956055H29.7695V35.5593H34.9507V14.1982Z" fill="white"/>
<path fill-rule="evenodd" clip-rule="evenodd" d="M57.3741 29.6131C57.3741 30.4271 56.8726 30.8784 56.2992 30.8784C55.73 30.8784 55.2174 30.4457 55.2174 29.6131V7.98438H50.0293V30.9515C50.0293 33.9971 51.8931 35.8957 53.8938 35.8957C55.922 35.8957 57.0218 34.2414 57.3327 33.6345H57.4501L57.5441 35.558H62.5636V7.98438H57.3741V29.6131Z" fill="white"/>
<path fill-rule="evenodd" clip-rule="evenodd" d="M69.0195 35.5587H63.8301V7.98502H68.9698L69.0209 9.90854H69.1259C69.5059 9.06194 70.7411 7.6582 72.6132 7.6582C74.5502 7.6582 75.7965 9.33895 76.0631 10.3287H76.1364C76.5232 9.32339 77.8828 7.6582 79.8475 7.6582C81.8343 7.6582 83.7368 9.17555 83.7368 12.9292V35.5587H78.546V13.9252C78.546 13.0911 78.0375 12.6584 77.4655 12.6584C76.8921 12.6584 76.3864 13.1051 76.3864 13.9252V35.5587H71.1721V13.9346C71.1721 13.102 70.654 12.6678 70.0834 12.6678C69.51 12.6678 69.0195 13.1175 69.0195 13.9346V35.5587Z" fill="white"/>
<path fill-rule="evenodd" clip-rule="evenodd" d="M92.3603 29.6237C92.3603 30.4392 91.8588 30.889 91.2827 30.889C90.712 30.889 90.1995 30.4532 90.1995 29.6237V13.943C90.1995 13.1119 90.712 12.6777 91.2827 12.6777C91.8588 12.6777 92.3603 13.129 92.3603 13.943V29.6237ZM93.6204 7.65727C91.8837 7.65571 90.6347 9.31312 90.3072 9.91694H90.1967V0.956055H85.0059V35.5577H90.1387L90.1967 33.6342H90.3072C90.567 34.3781 91.6806 35.8845 93.5845 35.8876C95.7827 35.8908 97.5691 33.7587 97.5691 30.5326V12.6715C97.5691 9.5699 95.7053 7.65727 93.6204 7.65727Z" fill="white"/>
<path fill-rule="evenodd" clip-rule="evenodd" d="M106.185 18.5854V13.4529C106.185 12.6359 105.683 12.1877 105.112 12.1877C104.542 12.1877 104.026 12.6188 104.026 13.4529L104.029 18.5854H106.185ZM104.026 30.125C104.026 30.9561 104.54 31.3918 105.112 31.3918C105.683 31.3918 106.183 30.9421 106.183 30.125V24.6501H111.373V29.6799C111.373 33.8382 108.334 35.8956 105.09 35.8956C101.803 35.8956 98.8301 33.8382 98.8301 29.6799V13.8809C98.8301 9.73503 101.799 7.66211 105.085 7.66211C108.459 7.66211 111.373 9.78328 111.373 13.8809V22.7904H104.025L104.026 30.125Z" fill="white"/>
<path fill-rule="evenodd" clip-rule="evenodd" d="M118.925 12.6724C118.358 12.6724 117.84 13.1051 117.84 13.9392V35.5587H112.645V7.98502H117.736L117.835 9.90387H117.95C118.439 9.1382 119.694 7.6582 121.428 7.6582C123.438 7.6582 125.191 9.49458 125.191 12.4125V22.7616H119.998V13.7571C119.998 13.0973 119.438 12.6724 118.914 12.6724H118.925Z" fill="white"/>
<path fill-rule="evenodd" clip-rule="evenodd" d="M147.596 18.5854V13.4529C147.596 12.6359 147.098 12.1877 146.524 12.1877C145.955 12.1877 145.438 12.6188 145.438 13.4529L145.441 18.5854H147.596ZM145.438 30.125C145.438 30.9561 145.955 31.3918 146.524 31.3918C147.098 31.3918 147.596 30.9421 147.596 30.125V24.6501H152.786V29.6799C152.786 33.8382 149.742 35.8956 146.502 35.8956C143.217 35.8956 140.246 33.8382 140.246 29.6799V13.8809C140.246 9.73503 143.211 7.66211 146.498 7.66211C149.871 7.66211 152.786 9.78328 152.786 13.8809V22.7904H145.438V30.125Z" fill="white"/>
<path fill-rule="evenodd" clip-rule="evenodd" d="M160.323 12.6724C159.747 12.6724 159.235 13.1051 159.235 13.9392V35.5587H154.039V7.98502H159.128L159.23 9.90387H159.343C159.834 9.1382 161.088 7.6582 162.825 7.6582C164.835 7.6582 166.59 9.49458 166.59 12.4125V22.7616H161.391V13.7571C161.391 13.0973 160.831 12.6724 160.309 12.6724H160.323Z" fill="white"/>
<mask id="mask0_6056_1853" style="mask-type:luminance" maskUnits="userSpaceOnUse" x="126" y="7" width="13" height="37">
<g opacity="0.7">
<path d="M126.459 7.65723H138.992V43.0896H126.459V7.65723Z" fill="white"/>
</g>
</mask>
<g mask="url(#mask0_6056_1853)">
<path fill-rule="evenodd" clip-rule="evenodd" d="M133.798 37.5777C133.798 38.3932 133.298 38.8414 132.726 38.8414C132.157 38.8414 131.642 38.4056 131.642 37.5777V35.3414H126.459V36.8618C126.459 41.1726 129.098 43.0899 132.708 43.0899C136.291 43.0899 138.992 41.1726 138.992 36.8618V7.98404H133.877L133.798 9.9169H133.673C133.402 9.28506 132.187 7.65723 130.252 7.65723C128.378 7.65723 126.459 9.27728 126.459 12.2731V28.7397C126.459 31.8943 128.257 33.7353 130.281 33.7353C132.207 33.7353 133.326 32.2864 133.645 31.7106H133.798V37.5777ZM133.798 27.8947C133.798 28.7102 133.301 29.1584 132.726 29.1584C132.157 29.1584 131.642 28.7273 131.642 27.8947V13.946C131.642 13.1181 132.157 12.687 132.726 12.687C133.301 12.687 133.798 13.1321 133.798 13.946V27.8947Z" fill="white"/>
</g>
<path fill-rule="evenodd" clip-rule="evenodd" d="M6.63593 29.6799C6.63593 30.5125 7.15129 30.9467 7.72191 30.9467C8.29391 30.9467 8.79268 30.4953 8.79268 29.6799V26.4102C8.79268 23.8019 8.29667 22.8526 6.57652 21.0318C5.1106 19.4787 4.37142 18.6787 3.42362 17.6734C2.21192 16.3833 0.813693 14.5842 0.813693 11.2259V7.08157C0.812312 2.53109 4.17385 0.837891 7.715 0.837891C11.2451 0.837891 14.579 2.56844 14.579 7.04888V12.393H8.79268V7.20762C8.79268 6.39059 8.29252 5.94239 7.71914 5.94239C7.14852 5.94239 6.63593 6.37658 6.63593 7.20762V9.69762C6.63593 11.853 7.23557 12.8023 8.82308 14.508C9.46001 15.1974 10.9052 16.7801 12.0174 18.0018C14.0056 20.1961 14.6937 22.1741 14.6937 24.896V29.5274C14.6937 34.3455 11.252 36.0356 7.715 36.0356C4.1324 36.0372 0.792969 34.3455 0.792969 29.7577V23.1218H6.63593V29.6799Z" fill="white"/>
</svg>
