<svg width="129" height="38" viewBox="0 0 129 38" fill="none" xmlns="http://www.w3.org/2000/svg">
<path fill-rule="evenodd" clip-rule="evenodd" d="M78.1494 21.2915C78.1494 21.2915 77.8928 20.3442 77.8928 19.6446V8.67942H82.2812V29.7996L68.2358 18.1585C67.4845 17.5169 67.0423 16.8029 67.0423 16.8029C67.0423 16.8029 67.2634 17.5894 67.2634 18.2718L67.2581 29.324H62.8711V8.28418L76.7862 19.6947C77.5297 20.3284 78.1494 21.2915 78.1494 21.2915Z" fill="white"/>
<path fill-rule="evenodd" clip-rule="evenodd" d="M117.87 8.67871C124.819 8.67871 126.6 11.423 126.6 15.3688C126.6 18.229 124.498 21.0273 120.257 21.3606L119.793 21.3817C119.793 21.3817 120.201 21.4554 120.632 21.8691L128.328 29.3233H122.38L111.636 18.4003H116.987C121.779 18.4003 121.916 15.872 121.951 15.2318C122.041 13.5955 121.516 12.282 117.86 12.282H111.746V29.3233H107.184V8.67871H117.87Z" fill="white"/>
<path fill-rule="evenodd" clip-rule="evenodd" d="M84.252 19.2964C84.252 10.6473 91.4826 8.37598 97.5592 8.37598C99.9935 8.37598 102.15 8.59336 104.413 9.07423L104.421 13.4587C103.117 13.0609 100.497 12.1795 97.5592 12.1795C91.7997 12.1795 89.0009 14.4205 89.0009 19.2964C89.0009 23.2896 92.0155 25.835 97.5592 25.835C100.497 25.835 103.442 25.1354 104.865 24.6071L104.858 28.8625C102.592 29.342 99.9935 29.6385 97.5592 29.6385C91.0694 29.6385 84.252 26.4792 84.252 19.2964Z" fill="white"/>
<path fill-rule="evenodd" clip-rule="evenodd" d="M34.8897 9.20996L39.1675 13.244C39.053 13.2967 38.9188 13.36 38.7596 13.4403C38.5135 13.5681 38.2175 13.7407 37.8635 13.9858C37.1595 14.4745 36.2384 15.2466 35.062 16.5192L26.7038 25.3765C25.2682 26.8929 23.8128 28.0931 22.4575 28.7281L18.1797 24.6941C18.2955 24.6401 18.431 24.5781 18.5863 24.4951C18.8337 24.3713 19.1297 24.1961 19.4824 23.951C20.1864 23.4636 21.1088 22.6915 22.2825 21.4202L30.6421 12.5748C32.0764 11.061 33.5357 9.84498 34.8897 9.20996Z" fill="white"/>
<path fill-rule="evenodd" clip-rule="evenodd" d="M18.3292 30.6259C20.2214 30.6259 21.9584 30.2491 23.1387 29.6378C23.6768 29.3558 24.4453 28.8697 25.1085 28.3546C25.7691 27.8394 26.7007 27.0384 27.4928 26.1966L35.8629 17.3643C37.9722 15.1378 39.242 14.4514 40.0105 14.18L44.3041 18.251C43.408 19.2101 32.7233 30.6035 32.7233 30.6035C31.993 31.39 31.2272 32.1489 30.7061 32.6297C30.2061 33.0935 29.3468 33.7812 28.9047 34.1066C26.3914 35.9497 23.0347 37.445 18.5148 37.445C8.27483 37.445 -0.00976562 29.0976 -0.00976562 19.4881C-0.00976562 7.56505 9.29329 0.648383 17.7687 0.648383C20.3649 0.57197 22.4505 1.00673 24.0953 1.56797C25.6204 2.08705 26.7704 2.71284 27.6033 3.1397C26.6191 3.7734 25.6651 4.6337 24.09 6.31873L22.3742 8.16449C21.9781 8.01167 20.2254 7.40168 17.9726 7.46888C12.5382 7.62961 6.59054 12.0444 6.80502 19.2812C7.00503 26.049 12.5777 30.6259 18.3292 30.6259Z" fill="white"/>
<path fill-rule="evenodd" clip-rule="evenodd" d="M34.155 8.36425C33.6142 8.64487 32.8445 9.1297 32.1813 9.64614C31.522 10.16 30.5904 10.9623 29.7983 11.8028L21.4308 20.6364C19.3202 22.8629 18.0504 23.548 17.2819 23.8194L12.9883 19.7511C13.8857 18.7906 24.5678 7.39724 24.5678 7.39724C25.2981 6.61071 26.0652 5.85317 26.5863 5.36966C27.0863 4.90724 27.9455 4.21952 28.389 3.89411C30.8983 2.05098 34.2603 0.555664 38.7803 0.555664C49.0215 0.555664 57.3008 8.90046 57.3008 18.51C57.3008 30.4357 47.9991 37.351 39.5224 37.351C36.9262 37.4301 34.8406 36.9913 33.1958 36.4301C31.6694 35.9097 30.5154 35.2826 29.6825 34.8544C30.7246 34.1522 31.6155 33.3789 33.2024 31.6833L34.9182 29.8362C35.313 29.9864 37.067 30.599 39.3184 30.5332C44.7542 30.3711 50.7019 25.9563 50.4874 18.7169C50.286 11.9504 44.7108 7.37484 38.9605 7.37484C37.067 7.37484 35.334 7.75031 34.155 8.36425Z" fill="white"/>
</svg>
